<svg xmlns="http://www.w3.org/2000/svg" viewBox="0 0 200 200" width="200" height="200">
  <circle cx="100" cy="100" r="100" fill="#B8DED4"/>
  <circle cx="100" cy="85" r="40" fill="#E8C4A0"/>
  <path d="M60 170 Q60 120 100 120 Q140 120 140 170" fill="#FFFFFF"/>
  <path d="M60 60 Q55 40 75 35 Q90 30 100 35 Q110 30 125 35 Q145 40 140 60 L140 90 Q145 85 140 100 L135 95 Q130 110 100 115 Q70 110 65 95 L60 100 Q55 85 60 90 Z" fill="#3D2414"/>
  <circle cx="88" cy="80" r="3" fill="#2C1810"/>
  <circle cx="112" cy="80" r="3" fill="#2C1810"/>
  <path d="M94 95 Q100 100 106 95" stroke="#D4A080" stroke-width="2" fill="none"/>
  <path d="M80 130 Q100 140 120 130" fill="none" stroke="#DDD" stroke-width="1"/>
</svg>
